<mxfile host="app.diagrams.net" modified="2021-01-17T09:43:29.757Z" agent="5.0 (Windows NT 10.0; Win64; x64) AppleWebKit/537.36 (KHTML, like Gecko) Chrome/87.0.4280.141 Safari/537.36" etag="ZenJKhx10RC4-apz2irn" version="14.2.4" type="github">
  <diagram id="un4T1JnDo6GPQO1kzQK1" name="Page-1">
    <mxGraphModel dx="2249" dy="762" grid="1" gridSize="10" guides="1" tooltips="1" connect="1" arrows="1" fold="1" page="1" pageScale="1" pageWidth="827" pageHeight="1169" math="0" shadow="0">
      <root>
        <mxCell id="0" />
        <mxCell id="1" parent="0" />
        <mxCell id="OSyfTobcqxr4nY3klv4o-1" value="&lt;pre style=&quot;background-color: #2b2b2b ; color: #a9b7c6 ; font-family: &amp;#34;jetbrains mono&amp;#34; , monospace ; font-size: 9.8pt&quot;&gt;SpringApplication.&lt;span style=&quot;font-style: italic&quot;&gt;run&lt;/span&gt;(StudyApplication.&lt;span style=&quot;color: #cc7832&quot;&gt;class, &lt;/span&gt;args)&lt;span style=&quot;color: #cc7832&quot;&gt;;&lt;/span&gt;&lt;/pre&gt;" style="rounded=1;whiteSpace=wrap;html=1;" vertex="1" parent="1">
          <mxGeometry x="120" y="10" width="400" height="60" as="geometry" />
        </mxCell>
        <mxCell id="OSyfTobcqxr4nY3klv4o-2" value="" style="endArrow=classic;html=1;entryX=0.5;entryY=0;entryDx=0;entryDy=0;" edge="1" parent="1" source="OSyfTobcqxr4nY3klv4o-1" target="OSyfTobcqxr4nY3klv4o-4">
          <mxGeometry width="50" height="50" relative="1" as="geometry">
            <mxPoint x="400" y="230" as="sourcePoint" />
            <mxPoint x="434" y="140" as="targetPoint" />
          </mxGeometry>
        </mxCell>
        <mxCell id="OSyfTobcqxr4nY3klv4o-3" value="项目启动第一步" style="text;html=1;align=center;verticalAlign=middle;resizable=0;points=[];autosize=1;" vertex="1" parent="1">
          <mxGeometry x="570" y="20" width="100" height="20" as="geometry" />
        </mxCell>
        <mxCell id="OSyfTobcqxr4nY3klv4o-4" value="new SpringApplication(primarySources).run(args)，分为构造方法和run方法" style="rounded=0;whiteSpace=wrap;html=1;" vertex="1" parent="1">
          <mxGeometry x="25" y="150" width="590" height="90" as="geometry" />
        </mxCell>
        <mxCell id="OSyfTobcqxr4nY3klv4o-5" value="在这里初始化的时候会加载系统的配置文件&lt;br&gt;springboot的自动装配也在这里" style="text;html=1;align=center;verticalAlign=middle;resizable=0;points=[];autosize=1;" vertex="1" parent="1">
          <mxGeometry x="560" y="110" width="240" height="30" as="geometry" />
        </mxCell>
        <mxCell id="OSyfTobcqxr4nY3klv4o-6" value="&lt;div&gt;setInitializers((Collection) getSpringFactoriesInstances(ApplicationContextInitializer.class));&lt;/div&gt;&lt;div&gt;setListeners((Collection) getSpringFactoriesInstances(ApplicationListener.class));&lt;/div&gt;&lt;div&gt;分别找到&lt;/div&gt;ApplicationContextInitializer和ApplicationListener相关的bean" style="rounded=0;whiteSpace=wrap;html=1;" vertex="1" parent="1">
          <mxGeometry x="25" y="300" width="365" height="100" as="geometry" />
        </mxCell>
        <mxCell id="OSyfTobcqxr4nY3klv4o-7" value="通过配置文件找到对应的配置类加载，配置文件就是&lt;br&gt;&quot;META-INF/spring.factories&quot;" style="text;html=1;align=center;verticalAlign=middle;resizable=0;points=[];autosize=1;" vertex="1" parent="1">
          <mxGeometry x="350" y="260" width="290" height="30" as="geometry" />
        </mxCell>
        <mxCell id="OSyfTobcqxr4nY3klv4o-9" value="" style="endArrow=classic;html=1;" edge="1" parent="1">
          <mxGeometry width="50" height="50" relative="1" as="geometry">
            <mxPoint x="390" y="349.5" as="sourcePoint" />
            <mxPoint x="450" y="349.5" as="targetPoint" />
          </mxGeometry>
        </mxCell>
        <mxCell id="OSyfTobcqxr4nY3klv4o-10" value="createSpringFactoriesInstances方法中通过BeanUtils.instantiateClass(constructor, args)初始化对应的bean，将实例化后的bean放在list中" style="rounded=0;whiteSpace=wrap;html=1;" vertex="1" parent="1">
          <mxGeometry x="450" y="320" width="230" height="60" as="geometry" />
        </mxCell>
        <mxCell id="OSyfTobcqxr4nY3klv4o-11" value="" style="endArrow=classic;html=1;exitX=0.5;exitY=1;exitDx=0;exitDy=0;entryX=0.808;entryY=-0.02;entryDx=0;entryDy=0;entryPerimeter=0;" edge="1" parent="1" source="OSyfTobcqxr4nY3klv4o-4" target="OSyfTobcqxr4nY3klv4o-6">
          <mxGeometry width="50" height="50" relative="1" as="geometry">
            <mxPoint x="190" y="320" as="sourcePoint" />
            <mxPoint x="240" y="270" as="targetPoint" />
          </mxGeometry>
        </mxCell>
        <mxCell id="OSyfTobcqxr4nY3klv4o-12" value="构造方法" style="text;html=1;align=center;verticalAlign=middle;resizable=0;points=[];autosize=1;" vertex="1" parent="1">
          <mxGeometry x="240" y="250" width="60" height="20" as="geometry" />
        </mxCell>
        <mxCell id="OSyfTobcqxr4nY3klv4o-13" value="创建开始监听器并开始" style="rounded=0;whiteSpace=wrap;html=1;" vertex="1" parent="1">
          <mxGeometry x="460" y="420" width="120" height="60" as="geometry" />
        </mxCell>
        <mxCell id="OSyfTobcqxr4nY3klv4o-16" value="" style="endArrow=classic;html=1;exitX=1;exitY=0.5;exitDx=0;exitDy=0;entryX=1;entryY=0.5;entryDx=0;entryDy=0;" edge="1" parent="1" source="OSyfTobcqxr4nY3klv4o-4" target="OSyfTobcqxr4nY3klv4o-13">
          <mxGeometry width="50" height="50" relative="1" as="geometry">
            <mxPoint x="640" y="230" as="sourcePoint" />
            <mxPoint x="690" y="180" as="targetPoint" />
            <Array as="points">
              <mxPoint x="770" y="200" />
              <mxPoint x="780" y="440" />
            </Array>
          </mxGeometry>
        </mxCell>
        <mxCell id="OSyfTobcqxr4nY3klv4o-17" value="run方法" style="text;html=1;align=center;verticalAlign=middle;resizable=0;points=[];autosize=1;" vertex="1" parent="1">
          <mxGeometry x="710" y="160" width="60" height="20" as="geometry" />
        </mxCell>
        <mxCell id="OSyfTobcqxr4nY3klv4o-18" value="ConfigurableApplicationContext&lt;br&gt;空对象" style="rounded=0;whiteSpace=wrap;html=1;" vertex="1" parent="1">
          <mxGeometry x="140" y="430" width="180" height="60" as="geometry" />
        </mxCell>
        <mxCell id="OSyfTobcqxr4nY3klv4o-19" value="Collection&amp;lt;SpringBootExceptionReporter&amp;gt; exceptionReporters = new ArrayList&amp;lt;&amp;gt;();&lt;br&gt;空的list后续加入启动的异常内容" style="rounded=0;whiteSpace=wrap;html=1;" vertex="1" parent="1">
          <mxGeometry x="110" y="525" width="240" height="60" as="geometry" />
        </mxCell>
        <mxCell id="OSyfTobcqxr4nY3klv4o-20" value="&lt;div&gt;SpringApplicationRunListeners listeners = getRunListeners(args);&lt;/div&gt;&lt;div&gt;&lt;span&gt;		&lt;/span&gt;listeners.starting();&lt;/div&gt;&lt;div&gt;新建监听器发布内容&lt;/div&gt;" style="rounded=0;whiteSpace=wrap;html=1;" vertex="1" parent="1">
          <mxGeometry x="70" y="610" width="330" height="60" as="geometry" />
        </mxCell>
        <mxCell id="OSyfTobcqxr4nY3klv4o-21" value="ApplicationArguments applicationArguments = new DefaultApplicationArguments(args);&lt;br&gt;设置默认参数" style="rounded=0;whiteSpace=wrap;html=1;" vertex="1" parent="1">
          <mxGeometry x="110" y="710" width="240" height="60" as="geometry" />
        </mxCell>
        <mxCell id="OSyfTobcqxr4nY3klv4o-22" value="&lt;div&gt;ConfigurableEnvironment environment = prepareEnvironment(listeners, applicationArguments);&lt;/div&gt;&lt;div&gt;configureIgnoreBeanInfo(environment);&lt;/div&gt;&lt;div&gt;&lt;br&gt;&lt;/div&gt;" style="rounded=0;whiteSpace=wrap;html=1;" vertex="1" parent="1">
          <mxGeometry x="60" y="810" width="340" height="60" as="geometry" />
        </mxCell>
        <mxCell id="OSyfTobcqxr4nY3klv4o-23" value="&lt;span style=&quot;background-color: rgb(255 , 255 , 255)&quot;&gt;环境变量的类是：&lt;font face=&quot;JetBrains Mono, monospace&quot;&gt;&lt;span style=&quot;font-size: 9.8pt&quot;&gt;StandardServletEnvironment&lt;/span&gt;&lt;/font&gt;&lt;br&gt;&lt;font face=&quot;JetBrains Mono, monospace&quot;&gt;&lt;span style=&quot;font-size: 9.8pt&quot;&gt;其中重要的两个属性是：&lt;/span&gt;&lt;/font&gt;&lt;br&gt;&lt;/span&gt;&lt;div&gt;&lt;font face=&quot;JetBrains Mono, monospace&quot;&gt;&lt;span style=&quot;font-size: 13.0667px ; background-color: rgb(255 , 255 , 255)&quot;&gt;/** System environment property source name: {@value}. */&lt;/span&gt;&lt;/font&gt;&lt;/div&gt;&lt;div&gt;&lt;font face=&quot;JetBrains Mono, monospace&quot;&gt;&lt;span style=&quot;font-size: 13.0667px ; background-color: rgb(255 , 255 , 255)&quot;&gt;public static final String SYSTEM_ENVIRONMENT_PROPERTY_SOURCE_NAME = &quot;systemEnvironment&quot;;&lt;/span&gt;&lt;/font&gt;&lt;/div&gt;&lt;div&gt;&lt;font face=&quot;JetBrains Mono, monospace&quot;&gt;&lt;span style=&quot;font-size: 13.0667px ; background-color: rgb(255 , 255 , 255)&quot;&gt;/** JVM system properties property source name: {@value}. */&lt;/span&gt;&lt;/font&gt;&lt;/div&gt;&lt;div&gt;&lt;font face=&quot;JetBrains Mono, monospace&quot;&gt;&lt;span style=&quot;font-size: 13.0667px ; background-color: rgb(255 , 255 , 255)&quot;&gt;public static final String SYSTEM_PROPERTIES_PROPERTY_SOURCE_NAME = &quot;systemProperties&quot;;&lt;/span&gt;&lt;/font&gt;&lt;/div&gt;" style="text;html=1;align=center;verticalAlign=middle;resizable=0;points=[];autosize=1;" vertex="1" parent="1">
          <mxGeometry x="450" y="780" width="640" height="90" as="geometry" />
        </mxCell>
        <mxCell id="OSyfTobcqxr4nY3klv4o-24" value="Banner printedBanner = printBanner(environment);" style="rounded=0;whiteSpace=wrap;html=1;" vertex="1" parent="1">
          <mxGeometry x="125" y="900" width="225" height="60" as="geometry" />
        </mxCell>
        <mxCell id="OSyfTobcqxr4nY3klv4o-25" value="打印系统bean其实就是springboot的那个logo" style="text;html=1;align=center;verticalAlign=middle;resizable=0;points=[];autosize=1;" vertex="1" parent="1">
          <mxGeometry x="395" y="920" width="250" height="20" as="geometry" />
        </mxCell>
        <mxCell id="OSyfTobcqxr4nY3klv4o-26" value="&lt;pre style=&quot;font-family: &amp;#34;jetbrains mono&amp;#34; , monospace ; font-size: 9.8pt&quot;&gt;&lt;span style=&quot;background-color: rgb(255 , 255 , 255)&quot;&gt;org.springframework.boot.&lt;br&gt;      web.servlet.context.AnnotationConfigServletWebServerApplicationContext&lt;/span&gt;&lt;/pre&gt;" style="rounded=0;whiteSpace=wrap;html=1;" vertex="1" parent="1">
          <mxGeometry x="15" y="990" width="610" height="60" as="geometry" />
        </mxCell>
        <mxCell id="OSyfTobcqxr4nY3klv4o-27" value="" style="endArrow=classic;html=1;exitX=-0.006;exitY=0.633;exitDx=0;exitDy=0;exitPerimeter=0;entryX=0.028;entryY=-0.017;entryDx=0;entryDy=0;entryPerimeter=0;" edge="1" parent="1" source="OSyfTobcqxr4nY3klv4o-18" target="OSyfTobcqxr4nY3klv4o-26">
          <mxGeometry width="50" height="50" relative="1" as="geometry">
            <mxPoint x="390" y="690" as="sourcePoint" />
            <mxPoint x="440" y="640" as="targetPoint" />
            <Array as="points">
              <mxPoint x="30" y="468" />
            </Array>
          </mxGeometry>
        </mxCell>
        <mxCell id="OSyfTobcqxr4nY3klv4o-28" value="实例化一个上下文对象" style="text;html=1;align=center;verticalAlign=middle;resizable=0;points=[];autosize=1;" vertex="1" parent="1">
          <mxGeometry x="-30" y="430" width="140" height="20" as="geometry" />
        </mxCell>
        <mxCell id="OSyfTobcqxr4nY3klv4o-29" value="FailureAnalyzers" style="rounded=0;whiteSpace=wrap;html=1;" vertex="1" parent="1">
          <mxGeometry x="150" y="1070" width="410" height="50" as="geometry" />
        </mxCell>
        <mxCell id="OSyfTobcqxr4nY3klv4o-30" value="" style="endArrow=classic;html=1;exitX=1;exitY=0.5;exitDx=0;exitDy=0;entryX=0.946;entryY=0.02;entryDx=0;entryDy=0;entryPerimeter=0;" edge="1" parent="1" source="OSyfTobcqxr4nY3klv4o-19" target="OSyfTobcqxr4nY3klv4o-29">
          <mxGeometry width="50" height="50" relative="1" as="geometry">
            <mxPoint x="390" y="880" as="sourcePoint" />
            <mxPoint x="440" y="830" as="targetPoint" />
            <Array as="points">
              <mxPoint x="550" y="555" />
            </Array>
          </mxGeometry>
        </mxCell>
        <mxCell id="OSyfTobcqxr4nY3klv4o-31" value="读取配置文件获取实例化的类，SpringBootExceptionReporter" style="text;html=1;align=center;verticalAlign=middle;resizable=0;points=[];autosize=1;" vertex="1" parent="1">
          <mxGeometry x="460" y="525" width="340" height="20" as="geometry" />
        </mxCell>
        <mxCell id="OSyfTobcqxr4nY3klv4o-32" value="&lt;pre style=&quot;background-color: #2b2b2b ; color: #a9b7c6 ; font-family: &amp;#34;jetbrains mono&amp;#34; , monospace ; font-size: 9.8pt&quot;&gt;prepareContext(context&lt;span style=&quot;color: #cc7832&quot;&gt;, &lt;/span&gt;environment&lt;span style=&quot;color: #cc7832&quot;&gt;, &lt;/span&gt;listeners&lt;span style=&quot;color: #cc7832&quot;&gt;, &lt;/span&gt;applicationArguments&lt;span style=&quot;color: #cc7832&quot;&gt;, &lt;/span&gt;printedBanner)&lt;span style=&quot;color: #cc7832&quot;&gt;;&lt;br&gt;&lt;/span&gt;&lt;/pre&gt;" style="rounded=0;whiteSpace=wrap;html=1;" vertex="1" parent="1">
          <mxGeometry x="50" y="1150" width="660" height="60" as="geometry" />
        </mxCell>
        <mxCell id="OSyfTobcqxr4nY3klv4o-33" value="准备容器的相关内容" style="text;html=1;align=center;verticalAlign=middle;resizable=0;points=[];autosize=1;" vertex="1" parent="1">
          <mxGeometry x="720" y="1169" width="120" height="20" as="geometry" />
        </mxCell>
        <mxCell id="OSyfTobcqxr4nY3klv4o-34" value="load(context, sources.toArray(new Object[0]));" style="rounded=0;whiteSpace=wrap;html=1;" vertex="1" parent="1">
          <mxGeometry x="60" y="1250" width="120" height="60" as="geometry" />
        </mxCell>
        <mxCell id="OSyfTobcqxr4nY3klv4o-35" value="设置容器的上下文，获取beanfactory&lt;br&gt;ConfigurableListableBeanFactory beanFactory = context.getBeanFactory();&lt;br&gt;其实是org.springframework.beans.factory.support.DefaultListableBeanFactory&lt;br&gt;设置beanfactory的相关属性然后加载启动类" style="text;html=1;align=center;verticalAlign=middle;resizable=0;points=[];autosize=1;" vertex="1" parent="1">
          <mxGeometry x="700" y="1020" width="430" height="60" as="geometry" />
        </mxCell>
        <mxCell id="OSyfTobcqxr4nY3klv4o-36" value="&lt;pre style=&quot;background-color: #2b2b2b ; color: #a9b7c6 ; font-family: &amp;#34;jetbrains mono&amp;#34; , monospace ; font-size: 9.8pt&quot;&gt;&lt;span style=&quot;color: #ffc66d&quot;&gt;load&lt;/span&gt;()&lt;/pre&gt;" style="rounded=0;whiteSpace=wrap;html=1;" vertex="1" parent="1">
          <mxGeometry x="200" y="1250" width="120" height="60" as="geometry" />
        </mxCell>
        <mxCell id="OSyfTobcqxr4nY3klv4o-37" value="&lt;pre style=&quot;background-color: #2b2b2b ; color: #a9b7c6 ; font-family: &amp;#34;jetbrains mono&amp;#34; , monospace ; font-size: 9.8pt&quot;&gt;&lt;span style=&quot;color: #ffc66d&quot;&gt;load&lt;/span&gt;(Object source)&lt;/pre&gt;" style="rounded=0;whiteSpace=wrap;html=1;" vertex="1" parent="1">
          <mxGeometry x="350" y="1250" width="160" height="60" as="geometry" />
        </mxCell>
        <mxCell id="OSyfTobcqxr4nY3klv4o-38" value="&lt;pre style=&quot;background-color: #2b2b2b ; color: #a9b7c6 ; font-family: &amp;quot;jetbrains mono&amp;quot; , monospace ; font-size: 9.8pt&quot;&gt;&lt;span style=&quot;color: #ffc66d&quot;&gt;load&lt;/span&gt;(Class&amp;lt;?&amp;gt; source)&lt;/pre&gt;" style="rounded=0;whiteSpace=wrap;html=1;" vertex="1" parent="1">
          <mxGeometry x="520" y="1250" width="220" height="60" as="geometry" />
        </mxCell>
        <mxCell id="OSyfTobcqxr4nY3klv4o-39" value="这里会判断启动类上面的注解是否含有compent，&lt;br&gt;然后在这里才会加载自动配置的内容" style="text;html=1;align=center;verticalAlign=middle;resizable=0;points=[];autosize=1;" vertex="1" parent="1">
          <mxGeometry x="800" y="1265" width="280" height="30" as="geometry" />
        </mxCell>
        <mxCell id="OSyfTobcqxr4nY3klv4o-40" value="" style="endArrow=classic;html=1;exitX=-0.009;exitY=0.5;exitDx=0;exitDy=0;exitPerimeter=0;entryX=0.911;entryY=-0.067;entryDx=0;entryDy=0;entryPerimeter=0;" edge="1" parent="1" source="OSyfTobcqxr4nY3klv4o-35" target="OSyfTobcqxr4nY3klv4o-32">
          <mxGeometry width="50" height="50" relative="1" as="geometry">
            <mxPoint x="390" y="1110" as="sourcePoint" />
            <mxPoint x="440" y="1060" as="targetPoint" />
          </mxGeometry>
        </mxCell>
        <mxCell id="OSyfTobcqxr4nY3klv4o-41" value="" style="endArrow=classic;html=1;entryX=1;entryY=0.5;entryDx=0;entryDy=0;" edge="1" parent="1" source="OSyfTobcqxr4nY3klv4o-39" target="OSyfTobcqxr4nY3klv4o-38">
          <mxGeometry width="50" height="50" relative="1" as="geometry">
            <mxPoint x="810" y="1410" as="sourcePoint" />
            <mxPoint x="860" y="1360" as="targetPoint" />
          </mxGeometry>
        </mxCell>
      </root>
    </mxGraphModel>
  </diagram>
</mxfile>
